<svg xmlns="http://www.w3.org/2000/svg" version="1.2" viewBox="0 0 3636 2886" width="100%" height="100%">
	<g id="Page 1" clip-path="url(#cp1)">
		<path id="Path 1" fill-rule="evenodd" class="s0 svg-elem-1" d="m731.9 2052q52.5 30 85.6 83.1 33.1 53.2 33.2 118.2v51.3q-0.1 47.5-18.2 89.4-18.1 41.9-49.4 73.1-31.2 31.3-73.1 49.4-41.9 18.1-89.4 18.1h-445.2v-914h381.9q47.4 0 89.8 18.1 42.4 18.2 73.7 49.4 31.1 31.3 49.2 73.2 18.1 41.9 18.1 89.4v51.2q0 43.8-15 81.9-15 38.2-41.2 68.2zm-346.4-53.8h125q28.8 0 48.2-19.4 19.4-19.3 19.4-48.1v-63.8q0-27.5-19.4-47.5-19.4-20-48.2-20h-125zm255.1 224.6q0-27.3-19.4-47.2-19.4-19.8-48.1-19.9h-187.6v197.6h187.6q28.7 0 48.1-19.3 19.4-19.2 19.4-47.8zm665.7 110.5h-95.5v201.3h-210.1v-915.3h333.2q67.7-1.2 122.2 18.8 54.5 20 94 55 39.4 35 62 83.1 22.5 48.2 26.3 101.9v180.1q0 66.3-28.3 123.2-28.3 56.9-81.2 95.6l149.5 257.6h-245.1zm122-439.2q0-18.7-8.1-35.5-8.2-16.8-21.4-29.9-13.2-13.1-30.2-20.6-17-7.5-35.8-7.5h-122v351.4h122q37.7 0 66.6-28 28.9-28.1 28.9-65.5zm360.9-274.7h210.1v915.3h-210.1zm619.4 181.3v175h260.1v181.3h-260.1v196.4h315.1v181.3h-525.1v-915.3h525.1v181.3zm1052 5h-197.6v729h-210.1v-729h-197.5v-186.3h605.2zm-184.6-293.3c-106.2 65.2-245.1 32-310.3-74.2-46.9-76.5-42.8-170 2.9-240.6l-364.7-227c-5 6.7-11.3 12.5-18.9 17.1-32.3 19.9-74.6 9.8-94.5-22.6-15.2-24.9-12.8-55.7 3.9-77.6l-420.5-378.6q-1.6 1.2-3.4 2.3c-7 4.3-15 5.8-22.5 4.7l-162.2 326.9q2.8 2.9 5.1 6.4c9.8 16 4.8 36.9-11.2 46.8q-2.7 1.6-5.4 2.7l23 410.4c38.9 1 76.5 21.1 98.4 56.7 34.4 56 16.8 129.3-39.2 163.7-56 34.4-129.3 16.8-163.6-39.2-34.4-56-16.9-129.3 39.1-163.6 16-9.8 33.3-15.4 50.8-17.1l-23-408.7c-10.6-0.7-20.8-6.3-26.8-16.1-9.9-16-4.8-36.9 11.1-46.7 9.2-5.6 19.9-6.4 29.3-3.1l160.8-324.2c-4.1-2.7-7.6-6.3-10.4-10.8q-0.6-1-1.2-2.1l-167 28c-1.3 6.4-5.1 12.2-11.1 15.9-11.4 7-26.4 3.4-33.4-8-6.1-10-4.1-22.7 4.1-30.4l-58.8-95.9c-11.6 4.7-24.9 1.4-33-8l-92.1 37.3c3 18.1-4.9 37.1-21.5 47.3-16.6 10.1-37.1 8.6-51.8-2.3l-282.7 255q0.1 0.2 0.3 0.5c16.8 27.4 8.2 63.2-19.2 80-6.7 4.1-13.8 6.7-21.1 7.9l-6.2 273.6c5.5 2.3 10.3 6.2 13.6 11.6 8.4 13.7 4.1 31.6-9.6 40-7.8 4.9-17 5.5-25.1 2.6l-57.5 67.2q0.9 1.3 1.8 2.6c12.6 20.6 6.2 47.5-14.4 60.1-14 8.6-31 8.3-44.4 0.7l-166.1 176.9q2.1 2.7 4 5.7c15.3 24.9 7.5 57.5-17.4 72.7-24.9 15.3-57.5 7.5-72.8-17.4-15.2-24.9-7.4-57.4 17.5-72.7 18.5-11.4 41.3-10 58 1.8l165.5-176.2q-2.4-2.7-4.3-5.9c-12.7-20.5-6.2-47.4 14.3-60 15.3-9.4 34.1-8.3 47.9 1.4l55.8-65.1q-1.5-1.8-2.8-3.9c-8.4-13.7-4.1-31.7 9.6-40.1 3.7-2.3 7.8-3.6 11.9-4.1l6.1-271c-17.7-1.6-34.4-11.2-44.4-27.5-16.8-27.4-8.2-63.3 19.2-80.1 23-14.1 51.9-10.4 70.6 7.4l281.7-254.1q-1-1.3-1.8-2.6c-13.4-21.8-6.6-50.4 15.3-63.8 21.8-13.4 50.4-6.5 63.8 15.3q0.8 1.3 1.5 2.7l90.4-36.6c-2.4-11.7 2.5-24.1 13.3-30.7 13.7-8.4 31.6-4.1 40 9.6 6.6 10.8 5.4 24.2-2.2 33.5l60.3 98.3c9.3-1.3 18.9 2.8 24.1 11.3q0.9 1.5 1.5 3l164.8-27.6c-0.5-11.9 5.3-23.8 16.2-30.5 16-9.8 36.9-4.8 46.7 11.2 6.4 10.4 6.5 22.9 1.4 33.1l421.3 379.4q4.1-3.5 8.7-6.4c32.4-19.8 74.7-9.7 94.6 22.6 12.5 20.4 13.1 44.7 3.7 64.9l365.5 227.5c16.7-22.4 37.8-42.1 63.1-57.6 106.2-65.2 245-31.9 310.2 74.2 65.2 106.2 31.9 245.1-74.2 310.2z"></path>
	</g>
</svg>